<?xml version="1.0" encoding="utf-8"?>
<!-- Generator: Adobe Illustrator 16.0.0, SVG Export Plug-In . SVG Version: 6.00 Build 0)  -->
<!DOCTYPE svg PUBLIC "-//W3C//DTD SVG 1.1//EN" "http://www.w3.org/Graphics/SVG/1.1/DTD/svg11.dtd">
<svg version="1.1" id="Layer_1" xmlns="http://www.w3.org/2000/svg" xmlns:xlink="http://www.w3.org/1999/xlink" x="0px" y="0px"
	 width="600px" height="200px" viewBox="0 0 600 200" enable-background="new 0 0 600 200" xml:space="preserve">
<g>
	<path fill="#6F7072" d="M146.618,50.394c0.144,4.485,0.206,8.971,0.312,13.457l0.178,13.458c0.105,8.971,0.095,17.942,0.148,26.914
		c-0.05,8.973-0.045,17.943-0.146,26.914l-0.179,13.459c-0.106,4.485-0.169,8.971-0.314,13.456
		c-0.145-4.485-0.208-8.971-0.314-13.456l-0.178-13.459c-0.103-8.971-0.097-17.941-0.147-26.914
		c0.054-8.972,0.044-17.943,0.149-26.914l0.177-13.458C146.411,59.365,146.474,54.879,146.618,50.394z"/>
</g>
<g>
	<path fill="#424243" stroke="#221F20" stroke-width="0.085" stroke-miterlimit="10" d="M177.348,92.575v5.67h7.216v5.671h-7.216
		v11.34h-5.67V86.905h14.156v5.671L177.348,92.575L177.348,92.575z"/>
	<path fill="#424243" stroke="#221F20" stroke-width="0.085" stroke-miterlimit="10" d="M204.628,115.256l-5.71-10.824h-2.735
		v10.824h-5.67V86.905h11.182c10.111,0,11.102,14.238,2.775,16.654l6.582,11.697H204.628z M196.183,98.92h4.996
		c3.846,0,3.846-6.344,0-6.344h-4.996V98.92z"/>
	<path fill="#424243" stroke="#221F20" stroke-width="0.085" stroke-miterlimit="10" d="M214.819,115.256V86.905h14.194v5.671
		h-8.524v5.67h7.454v5.671h-7.454v5.67h9.001v5.67L214.819,115.256L214.819,115.256z"/>
	<path fill="#424243" stroke="#221F20" stroke-width="0.085" stroke-miterlimit="10" d="M234.806,115.256V86.905H249v5.671h-8.525
		v5.67h7.454v5.671h-7.454v5.67h9v5.67L234.806,115.256L234.806,115.256z"/>
	<path fill="#424243" stroke="#221F20" stroke-width="0.085" stroke-miterlimit="10" d="M263.236,115.256h-8.446V86.905h8.446
		C282.11,86.905,282.11,115.256,263.236,115.256z M260.46,92.575v17.011h2.776c11.023,0,11.023-17.011,0-17.011H260.46z"/>
	<path fill="#424243" stroke="#221F20" stroke-width="0.085" stroke-miterlimit="10" d="M296.347,86.429
		c19.508,0,19.508,29.223,0,29.223C276.838,115.652,276.838,86.429,296.347,86.429z M296.347,92.258c-11.34,0-11.34,17.525,0,17.525
		S307.688,92.258,296.347,92.258z"/>
	<path fill="#424243" stroke="#221F20" stroke-width="0.085" stroke-miterlimit="10" d="M340.479,86.469h1.785v28.787h-5.75
		l0.039-15.821l-7.256,7.613l-7.257-7.613v15.821h-5.749V86.469h1.824l11.182,12.45L340.479,86.469z"/>
	<path fill="#CC3532" d="M359.911,115.256V86.945h11.144c11.022,0,10.982,17.487,0,17.487h-5.473v10.824H359.911L359.911,115.256z
		 M370.577,98.92c3.807,0,3.807-6.344,0-6.344h-4.996v6.344H370.577z"/>
	<path fill="#CC3532" d="M397.464,86.429c19.508,0,19.508,29.223,0,29.223C377.954,115.652,377.954,86.429,397.464,86.429z
		 M397.464,92.258c-11.341,0-11.341,17.525,0,17.525C408.804,109.783,408.804,92.258,397.464,92.258z"/>
	<path fill="#CC3532" d="M425.854,115.256h-8.445V86.905h8.445C444.729,86.905,444.729,115.256,425.854,115.256z M423.079,92.575
		v17.011h2.774c11.023,0,11.023-17.011,0-17.011H423.079z"/>
	<path fill="#CC3532" d="M458.45,92.258c-11.222,0-11.222,17.288,0,17.288c2.458,0,4.399-0.713,5.471-1.269l0.754,5.869
		c-1.745,0.713-4.242,1.188-6.225,1.188c-19.23,0-19.192-28.787,0-28.787c1.981,0,3.886,0.356,5.591,1.109l-0.675,5.831
		C462.296,92.933,460.908,92.258,458.45,92.258z"/>
	<path fill="#CC3532" d="M478.594,85.874h0.596l11.936,29.381h-6.385l-1.149-3.053h-9.396l-1.11,3.053h-6.423L478.594,85.874z
		 M481.488,106.891l-2.577-7.376l-2.655,7.376H481.488z"/>
	<path fill="#CC3532" d="M494.495,107.484c3.251,2.299,6.78,2.379,8.089,2.261c1.665-0.119,3.093-1.31,2.935-2.854
		c-0.118-1.627-1.348-2.34-2.935-2.896c-4.441-1.626-8.406-3.886-8.406-8.645c0-4.758,3.291-8.406,8.01-8.643
		c1.469-0.08,3.41-0.08,7.06,1.188l-0.714,5.471c-3.133-1.269-4.917-1.229-5.789-1.188c-2.021,0.119-2.935,1.586-2.815,3.172
		c0.158,1.587,1.546,2.301,3.172,2.854c4.401,1.627,8.208,4.164,8.208,8.685c0,4.719-3.252,8.327-8.563,8.604
		c-1.587,0.12-5.116-0.078-8.962-2.062L494.495,107.484z"/>
	<path fill="#CC3532" d="M520.746,115.256v-22.68h-7.06v-5.63h19.786v5.63h-7.059v22.68H520.746z"/>
	<path fill="#CC3532" d="M537.758,115.256V86.905h5.67v28.351H537.758z"/>
	<path fill="#CC3532" d="M555.481,115.256h-5.671V86.312h1.508l14.313,16.653v-16.02h5.709v28.907h-1.506l-14.354-16.021V115.256
		L555.481,115.256z"/>
	<path fill="#CC3532" d="M590.854,115.415c-18.717,0-19.668-28.034,0-28.748c3.369-0.119,6.104,0.872,6.62,1.03l-0.674,5.75
		c-1.109-0.476-2.934-1.11-5.947-1.031c-11.46,0.396-10.943,17.328,0,17.328c0.518,0,1.07-0.08,1.587-0.158v-8.525h5.75v12.45
		C596.007,114.74,593.549,115.415,590.854,115.415z"/>
</g>
<g>
	<path fill="#CC3532" d="M15.311,101.98l28.007,2.396L66.42,89.623l-14.006,17.804l0.39,10.205
		c17.355,3.263,21.665,12.089,16.638,24.866c-1.107-14.782-9.486-17.953-21.815-14.812c-5.237,9.098-11.34,14.395-17.863,17.984
		c6.612-10.503,10.443-21.516,10.292-33.273L15.311,101.98z"/>
	<path fill="#CC3532" d="M41.315,102.102c3.472,0,6.313-2.844,6.313-6.374c0-3.501-2.841-6.373-6.313-6.373
		c-3.501,0-6.344,2.872-6.344,6.373C34.971,99.259,37.813,102.102,41.315,102.102L41.315,102.102z"/>
	<path fill="#CC3532" d="M77.671,90.222l22.172,14.274l25.226-0.658l-21.814,9.305l0.029,4.189l3.472,5.416l-2.514-0.03l7.75,18.343
		l-17.117-14.392c-4.668-3.921-21.124-1.138-19.45,14.392c-9.096-20.467,9.427-20.914,15.352-25.582l0.299-8.289L77.671,90.222z"/>
	<path fill="#CC3532" d="M100.053,100.936c3.083,0,5.596-2.544,5.596-5.626c0-3.081-2.513-5.625-5.596-5.625
		c-3.051,0-5.566,2.544-5.566,5.625C94.487,98.391,97.002,100.936,100.053,100.936L100.053,100.936z"/>
	<path fill="#CC3532" d="M102.805,101.922c1.347,0,2.453-0.896,2.453-2.005c0-1.108-1.107-2.004-2.453-2.004
		c-1.315,0-2.422,0.896-2.422,2.004C100.383,101.025,101.491,101.922,102.805,101.922L102.805,101.922z"/>
	<path fill="#424243" stroke="#221F20" stroke-width="0.085" stroke-miterlimit="10" d="M2.054,100.605
		c5.686,24.805,15.651,42.789,32.976,49.013c15.411-13.136,42.849,0.448,60.984-6.224c4.577-1.705,1.347,3.83-2.485,5.354
		l-16.009,6.435c-3.41,1.346-2.542,2.006,0.419,2.305c12.808-2.663,24.659-8.199,35.369-17.086c0.928-0.75,2.305,0.029,1.827,0.957
		C94.219,183.104-3.69,176.609,2.054,100.605L2.054,100.605z"/>
	<path fill="#5A5B5D" stroke="#221F20" stroke-width="0.085" stroke-miterlimit="10" d="M105.498,55.961
		c-70.647-37.914-113.407,45.091-78.457,84.71C-30.051,97.913,32.548,6.08,105.498,55.961L105.498,55.961z"/>
	<path fill="#5A5B5D" stroke="#221F20" stroke-width="0.085" stroke-miterlimit="10" d="M121.537,80.048
		C89.551,22.237,17.436,52.608,19.083,100.785C28,56.439,79.436,29.179,121.537,80.048L121.537,80.048z"/>
</g>
</svg>
